<?xml version="1.0" encoding="utf-8"?>
<!-- Generator: Adobe Illustrator 28.0.0, SVG Export Plug-In . SVG Version: 6.00 Build 0)  -->
<svg version="1.1" id="Layer_1" xmlns="http://www.w3.org/2000/svg" xmlns:xlink="http://www.w3.org/1999/xlink" x="0px" y="0px"
	 viewBox="0 0 384 78.1" style="enable-background:new 0 0 384 78.1;" xml:space="preserve">
<style type="text/css">
	.st0{fill:#231F20;}
</style>
<g>
	<polygon class="st0" points="33.6,41.7 33.6,63.5 45.2,63.5 45.2,6.2 33.6,6.2 33.6,30.7 11.5,30.7 11.5,6.2 0,6.2 0,63.5 
		11.5,63.5 11.5,41.7 	"/>
	<path class="st0" d="M75.6,51.7c-1.5,0.9-3.2,1.3-5,1.3c-5.5,0-9.9-4.4-9.9-9.9c0-5.4,4.4-9.9,9.9-9.9c1.9,0,3.7,0.6,5.4,1.6
		c1.5,1,2.8,2.4,3.6,4.1c0.6,1.3,0.9,2.7,0.9,4.3c0,1.7-0.4,3.5-1.3,4.9C78.4,49.6,77.1,50.8,75.6,51.7z M91.1,22.2H80v2.3
		c-2.9-1.5-6.1-2.3-9.4-2.3c-2.9,0-5.6,0.6-8.2,1.7c-2.5,1-4.8,2.6-6.7,4.5c-1.9,1.9-3.5,4.1-4.5,6.6c-1.1,2.6-1.6,5.4-1.6,8.2
		c0,2.9,0.5,5.6,1.6,8.2c1,2.5,2.6,4.8,4.5,6.7s4.2,3.5,6.7,4.5c2.6,1.1,5.3,1.6,8.2,1.6c3.2,0,6.5-0.7,9.4-2.2v1.7h11V22.2z"/>
	<path class="st0" d="M117.1,53c-5.5,0-9.9-4.4-9.9-9.9c0-5.4,4.4-9.9,9.9-9.9c5.4,0,9.9,4.5,9.9,9.9C127,48.6,122.5,53,117.1,53z
		 M136.3,35c-1-2.4-2.6-4.7-4.5-6.6c-1.9-1.9-4.1-3.5-6.6-4.5c-2.6-1.1-5.4-1.7-8.2-1.7c-2.9,0-5.6,0.6-8.2,1.7
		c-2.5,1-4.8,2.6-6.7,4.5c-1.9,1.9-3.5,4.1-4.5,6.6c-1.1,2.6-1.6,5.4-1.6,8.2v31.3l11,3.7V61.6c0.5,0.4,1.1,0.6,1.8,0.9
		c2.6,1.1,5.3,1.6,8.2,1.6c2.8,0,5.5-0.5,8.2-1.6c2.4-1,4.7-2.6,6.6-4.5s3.5-4.2,4.5-6.7c1.1-2.6,1.7-5.3,1.7-8.2
		C138,40.3,137.4,37.6,136.3,35z"/>
	<path class="st0" d="M162.1,53c-5.5,0-9.9-4.4-9.9-9.9c0-5.4,4.4-9.9,9.9-9.9c5.4,0,9.9,4.5,9.9,9.9C172.1,48.6,167.6,53,162.1,53z
		 M181.4,35c-1-2.4-2.6-4.7-4.5-6.6c-1.9-1.9-4.1-3.5-6.6-4.5c-2.6-1.1-5.4-1.7-8.2-1.7c-2.9,0-5.6,0.6-8.2,1.7
		c-2.5,1-4.8,2.6-6.7,4.5c-1.9,1.9-3.5,4.1-4.5,6.6c-1.1,2.6-1.6,5.4-1.6,8.2v31.3l11,3.7V61.6c0.5,0.4,1.1,0.6,1.8,0.9
		c2.6,1.1,5.3,1.6,8.2,1.6c2.8,0,5.5-0.5,8.2-1.6c2.4-1,4.7-2.6,6.6-4.5s3.5-4.2,4.5-6.7c1.1-2.6,1.7-5.3,1.7-8.2
		C183.1,40.3,182.5,37.6,181.4,35z"/>
	<polygon class="st0" points="195.3,59.7 187.9,78.1 199.7,78.1 222,22.6 210.2,22.6 201,45.8 191.1,22.6 179,22.6 	"/>
	<path class="st0" d="M239.9,33.1c5.4,0,9.9,4.5,9.9,9.9c0,5.5-4.5,9.9-9.9,9.9c-5.5,0-9.9-4.4-9.9-9.9
		C229.9,37.6,234.4,33.1,239.9,33.1z M239.9,64c2.8,0,5.5-0.5,8.2-1.6c2.5-1,4.7-2.6,6.6-4.5s3.5-4.2,4.5-6.7
		c1.1-2.6,1.7-5.3,1.7-8.2c0-2.8-0.6-5.5-1.7-8.2c-1-2.5-2.6-4.7-4.5-6.6c-1.9-1.9-4.2-3.5-6.6-4.5c-2.6-1.1-5.4-1.7-8.2-1.7
		c-2.9,0-5.6,0.6-8.2,1.7c-2.5,1-4.8,2.6-6.7,4.5c-1.9,1.9-3.5,4.2-4.5,6.6c-1.1,2.6-1.6,5.4-1.6,8.2c0,2.9,0.5,5.6,1.6,8.2
		c1,2.5,2.6,4.8,4.5,6.7c1.9,1.9,4.2,3.5,6.7,4.5C234.3,63.5,237,64,239.9,64z"/>
	<path class="st0" d="M288,22.7h-11.7c0-6.5,5.2-11.7,11.7-11.7V0c-3.1,0-6,0.6-8.8,1.8c-2.7,1.2-5.1,2.8-7.2,4.8
		c-2.1,2.1-3.7,4.6-4.9,7.3c-1.2,2.8-1.8,5.7-1.8,8.8v40.8h11V33H288V22.7z"/>
	<path class="st0" d="M312.4,22.7h-11.7c0-6.5,5.2-11.7,11.7-11.7V0c-3.1,0-6,0.6-8.8,1.8c-2.7,1.2-5.1,2.8-7.2,4.8
		c-2.1,2.1-3.7,4.6-4.9,7.3c-1.2,2.8-1.8,5.7-1.8,8.8v40.8h11V33h11.7V22.7z"/>
	<path class="st0" d="M338.4,37.8h-17c1.8-2.8,4.9-4.7,8.5-4.7C333.5,33.1,336.6,35,338.4,37.8z M329.9,63.8c2.9,0,5.7-0.6,8.4-1.7
		c2.5-1.2,4.8-2.7,6.7-4.8l-7.7-7.3c-1.9,2.1-4.6,3.2-7.3,3.2c-3.6,0-6.7-1.8-8.5-4.7h29.2v-5.3c0-5.6-2.1-10.7-6.1-14.7
		c-3.9-3.9-9.1-6-14.6-6c-5.5,0-10.7,2.1-14.6,6c-3.9,4-6.1,9.1-6.1,14.7c0,5.5,2.2,10.7,6.1,14.6C319.1,61.6,324.3,63.8,329.9,63.8
		z"/>
	<path class="st0" d="M353.1,45.5v18.1h11V45.5c0-7.1,5.8-12.9,12.9-12.9v-11c-3.2,0-6.3,0.6-9.3,1.8c-2.9,1.2-5.4,2.9-7.6,5.1
		c-2.2,2.2-4,4.8-5.1,7.6C353.7,39.1,353.1,42.2,353.1,45.5z"/>
	<path class="st0" d="M379.7,61.5c2.4,0,4.3-1.9,4.3-4.3c0-2.4-1.9-4.3-4.3-4.3c-2.4,0-4.4,1.9-4.4,4.3
		C375.2,59.6,377.2,61.5,379.7,61.5z"/>
</g>
</svg>
